<svg xmlns="http://www.w3.org/2000/svg" viewBox="0 0 48 30" role="img" aria-label="PayPal">
  <rect width="48" height="30" rx="3" fill="#fff"/>
  <path fill="#003087" d="M17.5 8.5h-5.8c-.4 0-.7.3-.8.7L9 19.8c0 .3.2.5.5.5h2.7l.7-4.4c.1-.4.4-.7.8-.7h1.7c3.3 0 5.2-1.6 5.7-4.8.2-1.4 0-2.5-.7-3.2-.8-.7-2.1-1.1-3.9-1.1z"/>
  <path fill="#009CDE" d="M28.8 8.5H23c-.4 0-.7.3-.8.7l-2 12.6c0 .3.2.5.5.5h2.6c.4 0 .7-.3.8-.6l.5-3.4c.1-.4.4-.6.8-.6h1.7c3.3 0 5.2-1.6 5.7-4.8.2-1.4 0-2.5-.7-3.2-.8-.7-2.1-1.1-3.9-1.1z"/>
</svg>
