<svg xmlns="http://www.w3.org/2000/svg" viewBox="0 0 48 16" role="img" aria-label="Visa">
  <rect width="48" height="16" rx="2" fill="#1A1F71"/>
  <path fill="#fff" d="M19.5 11.2h-2.3L18.1 4.8h2.3l-1 6.4zm8.2-6.2c-.5-.2-1.2-.3-2.1-.3-2.3 0-3.9 1.2-3.9 3 0 1.3 1.2 2 2.1 2.4.9.5 1.3.8 1.3 1.2 0 .7-.8 1-1.5 1-.9 0-1.5-.1-2.3-.5l-.3-.2-.4 2.2c.6.3 1.8.5 3 .5 2.4 0 4-1.2 4-3.1 0-1-.6-1.8-2-2.4-.8-.4-1.3-.7-1.3-1.1 0-.4.4-.8 1.2-.8.7 0 1.2.1 1.6.3l.2.1.4-2.1zm6.2 4.1c.2-.6.9-2.8.9-2.8s.2-.5.3-.8l.2.7s.4 2 1 2.8h-2.4zm3.2-6.3h-1.8c-.6 0-1 .2-1.2.8l-3.4 8.7h2.4l.5-1.3h2.9l.3 1.3h2.1l-2.8-9.5zm-18.2 0-2.2 6.4-.2-.9c-.4-1.3-1.6-2.7-3-3.4l2 7.3h2.4l3.6-9.4H16.9zM11.4 4.8 9.2 9.8l-.2-.7C8.5 7.5 7 6.2 5.2 5.5l2 5.7H9.6l3.6-6.4h-1.8z"/>
</svg>
